<svg width="32" height="32" viewBox="0 0 32 32" fill="none" xmlns="http://www.w3.org/2000/svg">
<rect width="32" height="32" rx="16" fill="white"/>
<path d="M11.344 12.762L9.846 20H11.82L12.632 16.122C12.6787 15.898 12.7533 15.6693 12.856 15.436C12.9587 15.2027 13.0847 14.9927 13.234 14.806C13.3927 14.61 13.5747 14.4513 13.78 14.33C13.9947 14.1993 14.2327 14.134 14.494 14.134C14.746 14.134 14.9513 14.2087 15.11 14.358C15.278 14.5073 15.362 14.6893 15.362 14.904C15.362 15.0627 15.3433 15.2353 15.306 15.422L14.354 20H16.356L17.168 16.122C17.2147 15.898 17.2893 15.6693 17.392 15.436C17.4947 15.2027 17.6207 14.9927 17.77 14.806C17.9287 14.61 18.1107 14.4513 18.316 14.33C18.5307 14.1993 18.7687 14.134 19.03 14.134C19.282 14.134 19.4873 14.2087 19.646 14.358C19.814 14.5073 19.898 14.6893 19.898 14.904C19.898 15.0627 19.8793 15.2353 19.842 15.422L18.89 20H20.878L21.774 15.744C21.8207 15.5293 21.8673 15.31 21.914 15.086C21.9607 14.8527 21.984 14.624 21.984 14.4C21.984 14.092 21.9233 13.8213 21.802 13.588C21.6807 13.3547 21.5173 13.1633 21.312 13.014C21.1067 12.8647 20.8687 12.7527 20.598 12.678C20.3367 12.6033 20.066 12.566 19.786 12.566C19.5527 12.566 19.3147 12.5987 19.072 12.664C18.8387 12.72 18.6147 12.804 18.4 12.916C18.1853 13.028 17.9847 13.1633 17.798 13.322C17.6113 13.4713 17.4573 13.6393 17.336 13.826C17.252 13.378 17.0513 13.056 16.734 12.86C16.4167 12.664 16.034 12.566 15.586 12.566C15.054 12.566 14.5733 12.664 14.144 12.86C13.7147 13.056 13.3507 13.364 13.052 13.784H13.024L13.248 12.762H11.344Z" fill="black"/>
</svg>
