<svg width="32" height="32" viewBox="0 0 32 32" fill="none" xmlns="http://www.w3.org/2000/svg">
<rect width="32" height="32" rx="16" fill="black"/>
<path d="M21.4201 14.6158C21.4201 14.6158 18.3918 13.3308 15.1509 14.0793C15.1509 14.0793 15.2781 10.564 14.6417 8.91877C14.0924 7.49968 13.1721 7.09965 12.9647 7.07365C12.9647 7.07365 13.1647 4.93812 11.5568 4.9375C9.9485 4.9357 12.4777 6.2265 12.1169 7.13225C12.1169 7.13225 10.8838 7.13445 9.37058 7.4429C7.85558 7.75175 7.30583 8.8432 7.80342 9.36754C8.2387 9.82492 9.83042 9.4329 10.3642 9.8455C10.2755 10.9917 8.31721 17.5591 12.1758 20.5564C12.1758 20.5564 13.6071 23.3907 13.4084 25.7758C13.358 26.3793 12.5961 26.0395 12.866 27H14.3008C14.3008 27 14.6725 26.1494 14.6725 25.6714C14.6725 25.1929 14.6731 22.2589 14.8857 21.3022C14.8857 21.3022 17.2758 21.3549 18.7639 20.2923C18.7639 20.2923 19.7988 23.252 21.154 23.8899C22.5086 24.5272 21.9506 25.6175 21.473 26.0421C20.9948 26.4679 21.0739 26.8141 21.2611 26.9998H22.7479C22.7479 26.9998 23.1191 25.086 23.2795 24.7667C23.4399 24.4475 23.704 23.4376 23.2795 23.0118C22.8546 22.587 22.642 19.0151 23.173 18.2173C23.7046 17.4201 23.5442 15.6771 22.4822 15.1452C22.4822 15.1452 23.8632 15.0924 24.0761 16.0492C24.2889 17.0075 24.873 12.5948 21.4199 14.6158L21.4201 14.6158Z" fill="white"/>
</svg>
